# Blender v2.82 (sub 7) OBJ File: 'pie_piece.blend'
# www.blender.org
mtllib pie_piece.mtl
o Cylinder_Cylinder.001
v 0.000000 0.227607 -0.489041
v 0.244521 0.227607 -0.423522
v 0.000000 -0.111166 -1.379115
v 0.689558 -0.111166 -1.194349
v 0.689558 0.227607 -1.194349
v 0.000000 0.227607 -1.379115
v 0.000000 -0.111166 -0.489041
v 0.244521 -0.111166 -0.423522
vt 0.711826 0.684939
vt 0.889129 0.684939
vt 0.889129 0.491334
vt 0.711826 0.491334
vt 0.474551 0.899309
vt 0.711826 0.899309
vt 0.711826 0.491334
vt 0.474551 0.491334
vt 0.338652 0.491334
vt 0.500000 0.000000
vt 0.000000 0.000000
vt 0.161349 0.491334
vt 0.237275 1.000000
vt 0.474551 1.000000
vt 0.474551 0.491334
vt 0.237275 0.491334
vt 0.000000 0.491334
vt 0.000000 1.000000
vt 0.237275 1.000000
vt 0.237275 0.491334
vt 0.661349 0.000000
vt 0.500000 0.491334
vt 1.000000 0.491334
vt 0.838651 0.000000
vn -0.2588 0.0000 0.9659
vn 0.2588 0.0000 -0.9659
vn 0.0000 1.0000 -0.0000
vn 0.8660 0.0000 0.5000
vn -1.0000 0.0000 0.0000
vn 0.0000 -1.0000 0.0000
usemtl None
s off
f 7/1/1 8/2/1 2/3/1 1/4/1
f 5/5/2 4/6/2 3/7/2 6/8/2
f 2/9/3 5/10/3 6/11/3 1/12/3
f 2/13/4 8/14/4 4/15/4 5/16/4
f 1/17/5 6/18/5 3/19/5 7/20/5
f 7/21/6 3/22/6 4/23/6 8/24/6
